<?xml version="1.0"?>
<svg xmlns="http://www.w3.org/2000/svg" xmlns:xlink="http://www.w3.org/1999/xlink" xmlns:svgjs="http://svgjs.com/svgjs" version="1.1" width="512" height="512" x="0" y="0" viewBox="0 0 512 512" style="enable-background:new 0 0 512 512" xml:space="preserve" class=""><g><g xmlns="http://www.w3.org/2000/svg"><g><g><path d="m391.115 152.309 97.391 94.575c10.365 10.065 7.645 27.357-5.308 33.754l-127.082 62.765 22.48-186.663c.733-6.088 8.12-8.703 12.519-4.431z" fill="#11b4f5" data-original="#978ecb" style="" class=""/></g><g><path d="m120.885 152.309-97.391 94.575c-10.364 10.065-7.645 27.357 5.308 33.754l127.082 62.765-22.479-186.663c-.734-6.088-8.121-8.703-12.52-4.431z" fill="#11b4f5" data-original="#978ecb" style="" class=""/></g></g><path d="m257.046 210.946c34.817 0 63.041-28.224 63.041-63.041v-26.023l-5.251 2.613-21.002 10.451c-23.17 11.53-50.406 11.53-73.576 0l-26.222-13.048-.031-.016v26.023c0 34.817 28.224 63.041 63.041 63.041z" fill="#11b4f5" data-original="#978ecb" style="" class=""/><path d="m356.422 148.349-92.139-67.083v-24.505c14.227-.813 25.552-12.628 25.552-27.033v-1.904c0-15.342-12.5-27.823-27.865-27.823h-1.599c-15.365 0-27.865 12.481-27.865 27.823 0 4.282 3.471 7.754 7.754 7.754s7.754-3.472 7.754-7.754c0-6.791 5.543-12.315 12.356-12.315h1.599c6.813 0 12.356 5.524 12.356 12.315v1.904c0 6.379-5.208 11.569-11.609 11.569-7.688 0-13.943 6.249-13.943 13.929v25.334l-83.847 63.106c-3.422 2.576-4.108 7.437-1.533 10.859 2.574 3.421 7.436 4.109 10.858 1.532l81.825-61.583 91.218 66.412c1.377 1.003 2.974 1.486 4.558 1.486 2.395 0 4.758-1.106 6.275-3.191 2.52-3.462 1.757-8.312-1.705-10.832z" fill="#e19974" data-original="#e19974" style="" class=""/><path d="m381.588 167.152 15.508 155.37v168.799c0 11.424-9.264 20.678-20.678 20.678h-240.837c-11.414 0-20.678-9.254-20.678-20.678v-324.024c0-8.478 5.18-16.098 13.058-19.221l66.046-26.199v26.023c0 34.822 28.226 63.047 63.037 63.047 34.822 0 63.047-28.225 63.047-63.047v-26.023l64.122 26.127c7.786 3.174-2.625 10.743-2.625 19.148z" fill="#4eccff" data-original="#aca6d6" style="" class=""/><g><path d="m384.214 148.005-22.632-9.222c2.849 3.583 4.498 8.085 4.498 12.861v132.451c0 117.304-95.093 212.397-212.397 212.397h-38.101c2.3 8.916 10.373 15.509 20 15.509h240.837c11.42 0 20.678-9.258 20.678-20.678v-324.171c-.001-8.405-5.098-15.974-12.883-19.147z" fill="#11b4f5" data-original="#978ecb" style="" class=""/></g><g fill="#fff"><path d="m258.949 313.874-21.671 9.315c-1.593.685-2.806 2.034-3.319 3.691l-6.971 22.535c-1.627 5.26-8.924 5.647-11.098.589l-9.316-21.671c-.685-1.593-2.034-2.806-3.691-3.319l-22.535-6.971c-5.26-1.627-5.647-8.924-.589-11.099l21.671-9.315c1.593-.685 2.806-2.034 3.319-3.691l6.971-22.535c1.627-5.26 8.924-5.647 11.098-.589l9.316 21.671c.685 1.593 2.034 2.807 3.691 3.319l22.535 6.971c5.261 1.627 5.648 8.924.589 11.099z" fill="#d9f4ff" data-original="#ffffff" style="" class=""/><path d="m313.13 421.746-17.372 7.468c-1.277.549-2.25 1.63-2.661 2.958l-5.588 18.065c-1.304 4.217-7.154 4.527-8.897.472l-7.468-17.372c-.549-1.277-1.63-2.25-2.958-2.661l-18.065-5.588c-4.217-1.304-4.527-7.154-.472-8.897l17.372-7.468c1.277-.549 2.25-1.63 2.66-2.959l5.588-18.065c1.304-4.217 7.154-4.527 8.897-.472l7.468 17.372c.549 1.277 1.63 2.25 2.959 2.66l18.065 5.588c4.216 1.306 4.527 7.156.472 8.899z" fill="#d9f4ff" data-original="#ffffff" style="" class=""/></g></g><script/></g></svg>
